<mxfile host="app.diagrams.net" modified="2023-07-25T16:44:09.288Z" agent="Mozilla/5.0 (X11; Linux x86_64) AppleWebKit/537.36 (KHTML, like Gecko) Chrome/115.0.0.0 Safari/537.36" version="21.6.2" etag="NVLtp-f1ylzWNpDimkpN" type="github">
  <diagram name="PÃ¡gina-1" id="Y9a9NsVAlCYshqDi9b8u">
    <mxGraphModel>
      <root>
        <mxCell id="0" />
        <mxCell id="1" parent="0" />
      </root>
    </mxGraphModel>
  </diagram>
</mxfile>
